<?xml version="1.0" encoding="utf-8"?>
<!-- Generator: Adobe Illustrator 24.2.1, SVG Export Plug-In . SVG Version: 6.00 Build 0)  -->
<svg version="1.1" id="图层_1" xmlns="http://www.w3.org/2000/svg" xmlns:xlink="http://www.w3.org/1999/xlink" x="0px" y="0px"
	 viewBox="0 0 256 256" style="enable-background:new 0 0 256 256;" xml:space="preserve">
<style type="text/css">
	.st0{fill:#0071BC;stroke:#999999;stroke-width:2;stroke-miterlimit:10;}
	.st1{fill:#FFFFFF;}
	.st2{fill:none;stroke:#000000;stroke-miterlimit:10;}
	.st3{fill:none;stroke:#999999;stroke-width:2;stroke-linecap:round;stroke-miterlimit:10;}
	.st4{opacity:0.3;fill:#83EBFF;}
</style>
<path class="st0" d="M164,205.5H92c-2.21,0-4-1.79-4-4v-147c0-2.21,1.79-4,4-4h72c2.21,0,4,1.79,4,4v147
	C168,203.71,166.21,205.5,164,205.5z"/>
<g>
	<line class="st1" x1="113" y1="198" x2="143" y2="198"/>
	<line class="st2" x1="113" y1="198" x2="143" y2="198"/>
	<line class="st3" x1="113" y1="198" x2="143" y2="198"/>
</g>
<rect x="93" y="72" class="st4" width="70" height="34"/>
<rect x="93" y="110" class="st4" width="33" height="33"/>
<rect x="130" y="110" class="st4" width="33" height="33"/>
<rect x="93" y="147" class="st4" width="33" height="33"/>
<rect x="130" y="147" class="st4" width="33" height="33"/>
</svg>
